<svg width="897" height="663" viewBox="0 0 897 663" fill="none" xmlns="http://www.w3.org/2000/svg">
<g filter="url(#filter0_d_955_1231)">
<path fill-rule="evenodd" clip-rule="evenodd" d="M371.571 219.665L407.124 61.3698L248.83 96.9236L290.564 138.658L166.878 263.524C166.878 263.524 135.781 291.889 134.106 326.684C132.578 358.455 163.291 389.168 163.291 389.168L281.266 507.143C272.389 532.537 277.949 561.703 298.03 581.784C326.107 609.861 371.94 609.549 400.401 581.087C428.863 552.626 429.175 506.793 401.098 478.716C378.914 456.532 345.645 452.07 318.619 465.213L202.932 349.526C179.054 325.648 204.798 301.444 204.798 301.444L329.075 177.168L371.571 219.665ZM349.724 149.454L358.761 109.732L319.039 118.77L349.724 149.454ZM336.086 543.728C343.743 551.385 356.163 551.381 363.825 543.718C371.488 536.055 371.493 523.636 363.835 515.979C356.178 508.321 343.758 508.326 336.096 515.989C328.433 523.651 328.428 536.07 336.086 543.728Z" fill="white"/>
<path fill-rule="evenodd" clip-rule="evenodd" d="M525.05 442.956L489.497 601.251L647.791 565.698L606.057 523.963L729.743 399.097C729.743 399.097 760.84 370.732 762.515 335.937C764.043 304.166 733.33 273.453 733.33 273.453L615.355 155.478C624.232 130.084 618.672 100.918 598.591 80.8373C570.514 52.7604 524.681 53.0725 496.22 81.534C467.758 109.995 467.446 155.828 495.523 183.905C517.707 206.089 550.976 210.551 578.002 197.408L693.689 313.095C717.567 336.973 691.823 361.177 691.823 361.177L567.546 485.453L525.05 442.956ZM546.898 513.167L537.86 552.889L577.582 543.851L546.898 513.167ZM560.535 118.893C552.878 111.236 540.458 111.24 532.796 118.903C525.133 126.566 525.129 138.985 532.786 146.642C540.444 154.3 552.863 154.295 560.525 146.632C568.188 138.97 568.193 126.551 560.535 118.893Z" fill="white"/>
<rect x="426.664" y="432.924" width="52.0422" height="201.731" transform="rotate(-153.722 426.664 432.924)" fill="white"/>
</g>
<defs>
<filter id="filter0_d_955_1231" x="-4" y="0" width="904.691" height="670.72" filterUnits="userSpaceOnUse" color-interpolation-filters="sRGB">
<feFlood flood-opacity="0" result="BackgroundImageFix"/>
<feColorMatrix in="SourceAlpha" type="matrix" values="0 0 0 0 0 0 0 0 0 0 0 0 0 0 0 0 0 0 127 0" result="hardAlpha"/>
<feOffset dy="4"/>
<feGaussianBlur stdDeviation="2"/>
<feComposite in2="hardAlpha" operator="out"/>
<feColorMatrix type="matrix" values="0 0 0 0 0 0 0 0 0 0 0 0 0 0 0 0 0 0 0.25 0"/>
<feBlend mode="normal" in2="BackgroundImageFix" result="effect1_dropShadow_955_1231"/>
<feBlend mode="normal" in="SourceGraphic" in2="effect1_dropShadow_955_1231" result="shape"/>
</filter>
</defs>
</svg>
